<svg width="23" height="23" viewBox="0 0 23 23" fill="none" xmlns="http://www.w3.org/2000/svg">
<path fill-rule="evenodd" clip-rule="evenodd" d="M7.30106 18.572C7.53763 18.572 7.78191 18.6237 8.02839 18.7282C8.30238 18.8449 8.57306 18.9571 8.83165 19.0605C9.55458 19.3499 9.9375 19.9155 9.9408 20.6945L9.9419 20.9586C9.9441 21.3581 9.9463 21.7707 9.9386 22.18C10.9828 22.1734 12.0326 22.1745 13.0592 22.18C13.0522 21.7523 13.0543 21.3199 13.0564 20.8989C13.0566 20.8597 13.0568 20.8205 13.057 20.7815L13.0581 20.6692C13.0625 19.9298 13.4586 19.3466 14.1452 19.0693L14.1838 19.0539C14.2225 19.0382 14.2615 19.0224 14.3006 19.0065C14.5158 18.9193 14.7355 18.8303 14.9496 18.7381C15.6725 18.4278 16.3504 18.5566 16.9093 19.1122L17.0678 19.2696C17.3583 19.5579 17.6587 19.8561 17.9503 20.1554C18.6644 19.4357 19.406 18.6952 20.1554 17.9525C19.8374 17.6433 19.5029 17.3077 19.0748 16.873C18.5643 16.3537 18.4344 15.6692 18.7194 14.9936L18.7434 14.9364C18.8572 14.6653 18.9608 14.4182 19.0616 14.1673C19.3466 13.4542 19.9276 13.0603 20.6956 13.0581L20.9806 13.057C21.3735 13.0548 21.7795 13.0537 22.1811 13.0603C22.1745 12.015 22.1745 10.9663 22.1811 9.9419C21.6684 9.9496 21.1523 9.9463 20.667 9.943C19.9298 9.9375 19.3488 9.53917 19.0715 8.85035C18.9714 8.60057 18.857 8.31778 18.7403 8.0471C18.4322 7.32967 18.5588 6.65845 19.1045 6.10607L19.2487 5.96083C19.5447 5.66153 19.8517 5.35123 20.162 5.05194C19.4864 4.38402 18.7634 3.66109 17.9547 2.84573C17.64 3.16923 17.2956 3.51364 16.8752 3.92628C16.357 4.43574 15.6714 4.56448 14.9958 4.28059C14.7207 4.16505 14.4456 4.04952 14.1684 3.93838C13.4564 3.65229 13.0625 3.0724 13.0603 2.30326L13.0592 2.02487C13.057 1.62984 13.0559 1.22271 13.0625 0.818882C12.6994 0.824384 12.3319 0.823283 11.9765 0.822183C11.6717 0.821083 11.3669 0.821083 11.0621 0.822183C10.6945 0.823283 10.316 0.824384 9.9408 0.818882C9.94669 1.15567 9.94558 1.4951 9.94448 1.8262C9.94435 1.86614 9.94422 1.90596 9.9441 1.94564L9.943 2.27905C9.9408 3.09111 9.55238 3.65669 8.78873 3.95819C8.55656 4.04952 8.31668 4.14855 8.07681 4.25308C7.33187 4.57548 6.66505 4.45224 6.09397 3.88666L6.02245 3.81624C6.00145 3.79545 5.9804 3.77463 5.95932 3.75377C5.65898 3.45659 5.35114 3.15198 5.05194 2.84353C4.3136 3.58847 3.57196 4.32901 2.84793 5.04644C3.27597 5.46347 3.62038 5.80788 3.92958 6.12808C4.44674 6.66505 4.56888 7.31316 4.28279 8.00308C4.16505 8.28697 4.04732 8.57086 3.93178 8.85585C3.65229 9.54027 3.0691 9.9364 2.32967 9.9397L2.20423 9.9408C2.16586 9.94099 2.12737 9.94118 2.08878 9.94138C1.67249 9.94348 1.24402 9.94565 0.821083 9.9386C0.827685 10.9905 0.827685 12.0403 0.821083 13.0614C1.23264 13.0544 1.6488 13.0565 2.05442 13.0586C2.09235 13.0588 2.13018 13.059 2.16791 13.0592L2.32967 13.0603C3.0691 13.0636 3.65339 13.4597 3.93178 14.1441L3.97579 14.2531C3.98412 14.2735 3.99245 14.294 4.00078 14.3144C4.0871 14.5263 4.17367 14.7388 4.26299 14.9485C4.57659 15.6813 4.45004 16.3405 3.88886 16.9082C3.75081 17.0478 3.61167 17.1869 3.47221 17.3262C3.46306 17.3353 3.45336 17.345 3.44421 17.3541L3.44298 17.3554C3.3932 17.4051 3.34339 17.4548 3.29357 17.5046C3.24401 17.5542 3.19445 17.6036 3.14492 17.653L3.1436 17.6543C3.04514 17.7526 2.94684 17.8506 2.84903 17.9492C3.58187 18.6842 4.3147 19.4181 5.04864 20.1521C5.14467 20.0568 5.24022 19.961 5.33593 19.865C5.38388 19.817 5.43186 19.7688 5.47997 19.7207C5.68904 19.5106 5.89921 19.3004 6.11048 19.0924C6.45709 18.7469 6.86642 18.572 7.30106 18.572ZM11.4532 16.5896H11.4851C12.843 16.5896 14.1173 16.0669 15.0779 15.1172C16.0463 14.1599 16.5833 12.879 16.5899 11.509C16.5965 10.1632 16.0738 8.88788 15.1165 7.92063C14.1591 6.95338 12.8915 6.41749 11.5457 6.41088H11.5215C10.157 6.41088 8.8717 6.94018 7.90225 7.90192C6.9438 8.85266 6.41341 10.1104 6.40901 11.443C6.39911 14.2644 8.66262 16.5731 11.4532 16.5896Z" fill="#989898"/>
</svg>
